# Blender 5.0.1
# www.blender.org
mtllib CastleFloor.mtl
o floor_low
v 1.000000 0.000000 0.000000
v -1.050000 -0.125000 -0.050000
v -1.000000 -0.000000 2.000000
v -1.000000 0.000000 0.000000
v 1.050000 -0.125000 -0.050000
v 1.050000 -0.125000 2.049999
v 1.000000 -0.000000 2.000000
v -1.050000 -0.125000 2.050000
vn 0.4557 0.7647 -0.4557
vn -0.6155 0.4924 -0.6155
vn -0.4557 0.7647 0.4557
vn -0.4556 0.7647 -0.4557
vn 0.6155 0.4924 -0.6155
vn 0.6155 0.4924 0.6155
vn 0.4557 0.7647 0.4557
vn -0.6155 0.4924 0.6155
vt 0.962614 0.000100
vt 0.059415 0.059415
vt 0.037386 0.000100
vt 0.059415 0.940585
vt 0.000100 0.037386
vt 0.962614 0.999900
vt 0.037386 0.999900
vt 0.940585 0.940585
vt 0.940585 0.059416
vt 0.999900 0.962614
vt 0.000100 0.962614
vt 0.999900 0.037386
s 1
usemtl Floor
f 8/1/8 4/2/4 2/3/2
f 1/4/1 2/5/2 4/2/4
f 1/4/1 6/6/6 5/7/5
f 4/2/4 7/8/7 1/4/1
f 3/9/3 6/10/6 7/8/7
f 8/1/8 3/9/3 4/2/4
f 1/4/1 5/11/5 2/5/2
f 1/4/1 7/8/7 6/6/6
f 4/2/4 3/9/3 7/8/7
f 3/9/3 8/12/8 6/10/6
