# Blender 5.0.1
# www.blender.org
mtllib carpet_tjunction.mtl
o carpet_tjunction_low
v -0.000050 0.013552 1.000231
v -0.000765 0.013552 2.013892
v -0.000765 0.013552 -0.013430
v -1.013711 0.013552 1.001442
v -0.508841 0.013552 0.491440
v -0.508838 0.013552 -0.013430
v -0.508843 0.013552 1.000839
v -0.508838 0.013552 2.013892
v -0.508841 0.013552 1.509022
v 0.500348 0.013552 -0.013430
v 0.500349 0.013552 1.000829
v 0.500349 0.013552 0.499832
v 0.500349 0.013552 2.013892
v 0.500349 0.013552 1.500630
v -0.508841 0.013552 0.517723
v -1.013711 0.013552 0.517728
v -0.508841 0.013552 1.516363
v -0.516181 0.013552 1.516361
v -1.013711 0.013552 1.516263
v -0.000390 0.013552 0.517745
v -0.482556 0.013552 0.517725
v 0.500349 0.013552 0.517766
v 0.482416 0.013552 0.517765
v 0.500349 0.013552 1.516340
v -0.000414 0.013552 1.516351
v -0.517160 -0.176157 2.064575
v -0.510852 -0.032356 2.026156
v 0.510828 -0.176157 2.064574
v 0.508023 -0.125373 2.051007
v -1.026577 -0.034606 0.514071
v -1.064394 -0.176158 0.503322
v -1.050748 -0.125080 1.505091
v -1.064394 -0.176157 1.500975
v 0.509975 -0.176158 -0.064113
v 0.502715 -0.033090 -0.025891
v -0.503658 -0.176158 -0.064113
v -0.505052 -0.125093 -0.050470
vn -0.0000 1.0000 -0.0000
vn -0.0000 0.7931 0.6091
vn -0.0000 0.7928 0.6095
vn -0.0000 0.7931 -0.6091
vn -0.0000 0.7930 -0.6093
vn -0.6091 0.7931 -0.0000
vn -0.6095 0.7928 0.0001
vn -0.0000 0.7929 0.6094
vn -0.0000 0.2581 0.9661
vn -0.9661 0.2581 -0.0000
vn -0.0000 0.2581 -0.9661
vt 0.498909 0.498909
vt 0.498730 0.244882
vt 0.745198 0.244888
vt 0.745198 0.252620
vt 0.498557 0.000000
vt 0.248490 0.244877
vt 0.248491 0.000000
vt 0.498557 0.997818
vt 0.498741 0.736382
vt 0.736372 0.736372
vt 0.745198 0.745198
vt 0.745198 0.997818
vt 0.248489 0.498610
vt 0.248490 0.248490
vt 0.248490 0.749328
vt 0.248490 0.736392
vt 0.261426 0.736392
vt 0.248491 0.997818
vt 0.000000 0.498313
vt 0.000000 0.244926
vt 0.244877 0.244877
vt 0.745198 0.498615
vt 0.745198 0.736371
vt 0.000000 0.736390
vt 0.745198 0.000000
vt 0.745198 0.004096
vt 0.768586 0.003105
vt 0.815973 0.504580
vt 0.745198 0.500803
vt 0.745198 0.254162
vt 0.841845 0.000000
vt 0.841845 0.505961
vt 0.841845 0.508970
vt 0.867867 0.506944
vt 0.913958 0.994709
vt 0.841845 1.000000
vt 0.938492 0.501445
vt 0.938492 0.754832
vt 0.938492 0.992909
vt 0.841845 0.004738
vt 0.865607 0.003573
vt 0.912478 0.499582
vt 0.841845 0.501445
vt 0.841845 0.251379
vt 0.938492 0.000000
vt 0.938492 0.498895
s 1
usemtl Floor.006
f 1/1/1 25/2/1 24/3/1 14/4/1
f 2/5/2 25/2/1 17/6/1 8/7/3
f 3/8/4 20/9/1 23/10/1 12/11/1 10/12/5
f 1/1/1 7/13/1 9/14/1
f 5/15/1 15/16/1 21/17/1
f 6/18/4 5/15/1 21/17/1 20/9/1 3/8/4
f 9/14/1 7/13/1 4/19/6 19/20/7 18/21/1
f 11/22/1 22/23/1 23/10/1 1/1/1
f 14/4/1 11/22/1 1/1/1
f 15/16/1 16/24/6 4/19/6 7/13/1
f 18/21/1 17/6/1 9/14/1
f 20/9/1 21/17/1 1/1/1
f 23/10/1 20/9/1 1/1/1
f 23/10/1 22/23/1 12/11/1
f 21/17/1 15/16/1 7/13/1 1/1/1
f 24/3/1 25/2/1 2/5/2 13/25/8
f 17/6/1 25/2/1 1/1/1 9/14/1
f 8/26/3 27/27/9 29/28/9 13/29/8 2/30/2
f 27/27/9 26/31/9 28/32/9 29/28/9
f 33/33/10 32/34/10 30/35/10 31/36/10
f 32/34/10 19/37/7 4/38/6 16/39/6 30/35/10
f 10/40/5 35/41/11 37/42/11 6/43/4 3/44/4
f 35/41/11 34/45/11 36/46/11 37/42/11
