# Blender 5.0.1
# www.blender.org
mtllib carpet_corner.mtl
o carpet_corner_low
v -0.000050 0.013552 1.000231
v -0.000765 0.013552 2.013892
v -1.013711 0.013552 1.001442
v -0.508843 0.013552 1.000839
v -0.508838 0.013552 2.013892
v -0.508841 0.013552 1.509022
v 0.500349 0.013552 1.000829
v 0.500349 0.013552 2.013892
v 0.500349 0.013552 1.500630
v -0.508841 0.013552 0.517723
v -1.013711 0.013552 0.517728
v -0.508841 0.013552 1.516363
v -0.516181 0.013552 1.516361
v -1.013711 0.013552 1.516263
v -0.000390 0.013552 0.517745
v -0.482556 0.013552 0.517725
v 0.500349 0.013552 0.517766
v 0.482416 0.013552 0.517765
v 0.500349 0.013552 1.516340
v -0.000414 0.013552 1.516351
v -0.517160 -0.176157 2.064575
v -0.510852 -0.032356 2.026156
v 0.510828 -0.176157 2.064574
v 0.508023 -0.125373 2.051007
v -1.026577 -0.034606 0.514071
v -1.064394 -0.176158 0.503322
v -1.050748 -0.125080 1.505091
v -1.064394 -0.176157 1.500975
vn -0.0000 1.0000 -0.0000
vn -0.0000 0.7931 0.6091
vn -0.0000 0.7928 0.6095
vn -0.6091 0.7931 -0.0000
vn -0.6095 0.7928 0.0001
vn -0.0000 0.7929 0.6094
vn -0.0000 0.2581 0.9661
vn -0.9661 0.2581 -0.0000
vt 0.536642 0.264916
vt 0.263403 0.265109
vt 0.263409 0.000000
vt 0.271726 0.000000
vt -0.000000 0.265295
vt 0.263397 0.534275
vt -0.000000 0.534274
vt 0.536321 0.534277
vt 0.267283 0.534275
vt 0.536001 0.801559
vt 0.263450 0.801559
vt 0.263398 0.538161
vt 0.536326 -0.000000
vt 0.792064 0.000000
vt 0.792065 0.009494
vt 0.792087 0.534275
vt 0.792084 0.801559
vt 0.792075 0.265097
vt 0.792086 0.520360
vt -0.000000 0.000000
vt 0.792087 0.004406
vt 0.817243 0.003340
vt 0.868215 0.542742
vt 0.792087 0.538679
vt 0.792087 0.273385
vt 0.896043 0.000000
vt 0.896043 0.544227
vt 0.896044 0.008094
vt 0.924033 0.005915
vt 0.973611 0.530570
vt 0.896044 0.536261
vt 1.000000 0.000000
vt 1.000000 0.272551
vt 1.000000 0.528634
s 1
usemtl Floor.006
f 1/1/1 20/2/1 19/3/1 9/4/1
f 2/5/2 20/2/1 12/6/1 5/7/3
f 1/1/1 4/8/1 6/9/1
f 6/9/1 4/8/1 3/10/4 14/11/5 13/12/1
f 7/13/1 17/14/1 18/15/1 1/1/1
f 9/4/1 7/13/1 1/1/1
f 10/16/1 11/17/4 3/10/4 4/8/1
f 13/12/1 12/6/1 6/9/1
f 15/18/1 16/19/1 1/1/1
f 18/15/1 15/18/1 1/1/1
f 16/19/1 10/16/1 4/8/1 1/1/1
f 19/3/1 20/2/1 2/5/2 8/20/6
f 12/6/1 20/2/1 1/1/1 6/9/1
f 5/21/3 22/22/7 24/23/7 8/24/6 2/25/2
f 22/22/7 21/26/7 23/27/7 24/23/7
f 28/28/8 27/29/8 25/30/8 26/31/8
f 27/29/8 14/32/5 3/33/4 11/34/4 25/30/8
